<svg width="18" height="18" viewBox="0 0 18 18" fill="none" xmlns="http://www.w3.org/2000/svg">
<g clip-path="url(#clip0_373_1255)">
<path d="M9.02786 17.3895C13.7981 17.3895 17.6651 13.5224 17.6651 8.75223C17.6651 3.98201 13.7981 0.11499 9.02786 0.11499C4.25765 0.11499 0.390625 3.98201 0.390625 8.75223C0.390625 13.5224 4.25765 17.3895 9.02786 17.3895Z" fill="#6DA544"/>
<path d="M5.27246 10.4419C5.27246 11.0641 5.77686 11.5685 6.39905 11.5685H9.77884C9.77884 12.087 10.1992 12.5073 10.7177 12.5073H11.8443C12.3628 12.5073 12.7831 12.087 12.7831 11.5685V10.4419H5.27246Z" fill="#F0F0F0"/>
<path d="M12.877 4.99683V7.62555C12.877 8.03969 12.5401 8.37661 12.126 8.37661V9.5032C13.1613 9.5032 14.0036 8.66087 14.0036 7.62555V4.99683H12.877Z" fill="#F0F0F0"/>
<path d="M4.80331 7.62628C4.80331 8.04043 4.46639 8.37735 4.05225 8.37735V9.50393C5.0876 9.50393 5.9299 8.6616 5.9299 7.62628V4.99756H4.80331V7.62628Z" fill="#F0F0F0"/>
<path d="M11.187 4.99683H12.3136V7.62555H11.187V4.99683Z" fill="#F0F0F0"/>
<path d="M9.4974 6.49896C9.4974 6.60251 9.41316 6.68672 9.30964 6.68672C9.20613 6.68672 9.12189 6.60247 9.12189 6.49896V4.99683H7.9953V6.49896C7.9953 6.60251 7.91105 6.68672 7.80754 6.68672C7.70403 6.68672 7.61978 6.60247 7.61978 6.49896V4.99683H6.49316V6.49896C6.49316 7.22371 7.08279 7.81334 7.80754 7.81334C8.08667 7.81334 8.34551 7.72562 8.55861 7.57663C8.77167 7.72559 9.03055 7.81334 9.30968 7.81334C9.36589 7.81334 9.42115 7.80939 9.47551 7.80248C9.39568 8.1314 9.09945 8.37662 8.74637 8.37662V9.5032C9.78172 9.5032 10.624 8.66087 10.624 7.62555V6.49896V4.99683H9.49744V6.49896H9.4974Z" fill="#F0F0F0"/>
<path d="M6.49316 8.37671H8.18306V9.50329H6.49316V8.37671Z" fill="#F0F0F0"/>
</g>
<defs>
<clipPath id="clip0_373_1255">
<rect width="17.2745" height="17.2745" fill="white" transform="translate(0.390625 0.11499)"/>
</clipPath>
</defs>
</svg>
