<svg width="17" height="18" viewBox="0 0 17 18" fill="none" xmlns="http://www.w3.org/2000/svg">
<g clip-path="url(#clip0_373_1248)">
<path d="M8.66602 17.0979C13.2375 17.0979 16.9434 13.392 16.9434 8.82056C16.9434 4.24911 13.2375 0.543213 8.66602 0.543213C4.09457 0.543213 0.388672 4.24911 0.388672 8.82056C0.388672 13.392 4.09457 17.0979 8.66602 17.0979Z" fill="#F0F0F0"/>
<path d="M2.28076 3.5533H15.0514C14.5797 2.98213 14.0327 2.47563 13.4258 2.04834H3.90639C3.29952 2.47556 2.75247 2.9821 2.28076 3.5533Z" fill="#F0F0F0"/>
<path d="M0.388672 8.82058C0.388672 9.0743 0.400732 9.32514 0.423075 9.57307H16.909C16.9313 9.32514 16.9434 9.0743 16.9434 8.82058C16.9434 8.56686 16.9313 8.31602 16.909 8.06812H0.423075C0.400732 8.31602 0.388672 8.56686 0.388672 8.82058H0.388672Z" fill="#F0F0F0"/>
<path d="M1.29161 12.583H16.0411C16.2848 12.1063 16.4836 11.6028 16.632 11.0781H0.700684C0.849062 11.6028 1.04791 12.1063 1.29161 12.583Z" fill="#F0F0F0"/>
<path d="M3.90639 15.5931H13.4258C14.0326 15.1658 14.5797 14.6593 15.0514 14.0881H2.28076C2.75247 14.6592 3.29952 15.1658 3.90639 15.5931Z" fill="#F0F0F0"/>
<path d="M0.700684 6.56307H16.6321C16.4837 6.03836 16.2848 5.53486 16.0411 5.05811H1.29164C1.04794 5.53486 0.849094 6.03836 0.700684 6.56307Z" fill="#F0F0F0"/>
<path d="M4.34717 2.04817H13.4255C12.0791 1.10022 10.4376 0.543213 8.66578 0.543213C7.58613 0.543213 5.69353 1.10022 4.34717 2.04817Z" fill="#D80027"/>
<path d="M8.30664 5.05818H16.0412C15.766 4.51973 15.4335 4.01536 15.0518 3.55322H8.30664V5.05818Z" fill="#D80027"/>
<path d="M8.30664 8.06795H16.9095C16.8629 7.55119 16.7693 7.04796 16.6322 6.56299H8.30664V8.06795Z" fill="#D80027"/>
<path d="M0.700631 11.078H16.6319C16.7691 10.593 16.8627 10.0898 16.9092 9.573H0.42334C0.4699 10.0898 0.563473 10.593 0.700631 11.078Z" fill="#D80027"/>
<path d="M2.28091 14.088H15.0516C15.4333 13.6258 15.7657 13.1214 16.041 12.583H1.2915C1.56676 13.1215 1.89921 13.6258 2.28091 14.088Z" fill="#D80027"/>
<path d="M8.66644 17.098C10.4382 17.098 12.0798 16.541 13.4261 15.593H3.90674C5.2531 16.541 6.89467 17.098 8.66644 17.098Z" fill="#D80027"/>
<path d="M0.700599 6.56311C0.56344 7.04811 0.4699 7.55132 0.42334 8.06807H8.66629V0.543213C4.87746 0.543213 1.68328 3.08889 0.700599 6.56311Z" fill="#0052B4"/>
<path d="M5.31583 2.70264L5.85176 4.35213H7.58631L6.18311 5.37166L6.719 7.02125L5.31583 6.00178L3.91259 7.02125L4.44862 5.37166L3.04541 4.35213H4.77987L5.31583 2.70264Z" fill="#F0F0F0"/>
</g>
<defs>
<clipPath id="clip0_373_1248">
<rect width="16.5547" height="16.5547" fill="white" transform="translate(0.388672 0.543213)"/>
</clipPath>
</defs>
</svg>
